<mxfile host="app.diagrams.net" modified="2023-01-22T20:25:09.865Z" agent="5.0 (Windows NT 10.0; Win64; x64) AppleWebKit/537.36 (KHTML, like Gecko) Chrome/109.0.0.0 Safari/537.36" etag="5u_ATI4zzAQnQlQ36kqL" version="20.8.10" type="github">
  <diagram id="C5RBs43oDa-KdzZeNtuy" name="Page-1">
    <mxGraphModel dx="1500" dy="839" grid="1" gridSize="10" guides="1" tooltips="1" connect="1" arrows="1" fold="1" page="1" pageScale="1" pageWidth="827" pageHeight="1169" math="0" shadow="0">
      <root>
        <mxCell id="WIyWlLk6GJQsqaUBKTNV-0" />
        <mxCell id="WIyWlLk6GJQsqaUBKTNV-1" parent="WIyWlLk6GJQsqaUBKTNV-0" />
        <mxCell id="LsAvCBgni59_uP4NWD5y-9" value="" style="edgeStyle=orthogonalEdgeStyle;rounded=0;orthogonalLoop=1;jettySize=auto;html=1;" parent="WIyWlLk6GJQsqaUBKTNV-1" source="LsAvCBgni59_uP4NWD5y-0" target="LsAvCBgni59_uP4NWD5y-2" edge="1">
          <mxGeometry relative="1" as="geometry" />
        </mxCell>
        <mxCell id="LsAvCBgni59_uP4NWD5y-0" value="START" style="ellipse;whiteSpace=wrap;html=1;" parent="WIyWlLk6GJQsqaUBKTNV-1" vertex="1">
          <mxGeometry x="339" y="80" width="120" height="80" as="geometry" />
        </mxCell>
        <mxCell id="LsAvCBgni59_uP4NWD5y-10" value="" style="edgeStyle=orthogonalEdgeStyle;rounded=0;orthogonalLoop=1;jettySize=auto;html=1;" parent="WIyWlLk6GJQsqaUBKTNV-1" source="Pipk0IZZBZZFTxZ42eRv-12" target="Pipk0IZZBZZFTxZ42eRv-1" edge="1">
          <mxGeometry relative="1" as="geometry">
            <mxPoint x="910" y="230" as="targetPoint" />
            <Array as="points">
              <mxPoint x="720" y="260" />
            </Array>
          </mxGeometry>
        </mxCell>
        <mxCell id="LsAvCBgni59_uP4NWD5y-2" value="Get the first player&#39;s code" style="shape=parallelogram;perimeter=parallelogramPerimeter;whiteSpace=wrap;html=1;fixedSize=1;" parent="WIyWlLk6GJQsqaUBKTNV-1" vertex="1">
          <mxGeometry x="333" y="190" width="131" height="60" as="geometry" />
        </mxCell>
        <mxCell id="LsAvCBgni59_uP4NWD5y-20" value="" style="edgeStyle=orthogonalEdgeStyle;rounded=0;orthogonalLoop=1;jettySize=auto;html=1;" parent="WIyWlLk6GJQsqaUBKTNV-1" source="LsAvCBgni59_uP4NWD5y-3" target="LsAvCBgni59_uP4NWD5y-17" edge="1">
          <mxGeometry relative="1" as="geometry" />
        </mxCell>
        <mxCell id="LsAvCBgni59_uP4NWD5y-3" value="Set the board code" style="rounded=0;whiteSpace=wrap;html=1;" parent="WIyWlLk6GJQsqaUBKTNV-1" vertex="1">
          <mxGeometry x="339" y="280" width="120" height="60" as="geometry" />
        </mxCell>
        <mxCell id="LsAvCBgni59_uP4NWD5y-24" value="Yes" style="edgeStyle=orthogonalEdgeStyle;rounded=0;orthogonalLoop=1;jettySize=auto;html=1;" parent="WIyWlLk6GJQsqaUBKTNV-1" source="LsAvCBgni59_uP4NWD5y-5" target="LsAvCBgni59_uP4NWD5y-23" edge="1">
          <mxGeometry relative="1" as="geometry" />
        </mxCell>
        <mxCell id="LsAvCBgni59_uP4NWD5y-5" value="Has the code been guessed correctly?" style="rhombus;whiteSpace=wrap;html=1;" parent="WIyWlLk6GJQsqaUBKTNV-1" vertex="1">
          <mxGeometry x="331" y="780" width="136" height="100" as="geometry" />
        </mxCell>
        <mxCell id="LsAvCBgni59_uP4NWD5y-13" value="" style="edgeStyle=orthogonalEdgeStyle;rounded=0;orthogonalLoop=1;jettySize=auto;html=1;" parent="WIyWlLk6GJQsqaUBKTNV-1" source="LsAvCBgni59_uP4NWD5y-6" target="LsAvCBgni59_uP4NWD5y-7" edge="1">
          <mxGeometry relative="1" as="geometry" />
        </mxCell>
        <mxCell id="LsAvCBgni59_uP4NWD5y-6" value="Get the second player&#39;s guess" style="shape=parallelogram;perimeter=parallelogramPerimeter;whiteSpace=wrap;html=1;fixedSize=1;" parent="WIyWlLk6GJQsqaUBKTNV-1" vertex="1">
          <mxGeometry x="329" y="500" width="140" height="70" as="geometry" />
        </mxCell>
        <mxCell id="LsAvCBgni59_uP4NWD5y-14" value="" style="edgeStyle=orthogonalEdgeStyle;rounded=0;orthogonalLoop=1;jettySize=auto;html=1;" parent="WIyWlLk6GJQsqaUBKTNV-1" source="LsAvCBgni59_uP4NWD5y-7" target="LsAvCBgni59_uP4NWD5y-8" edge="1">
          <mxGeometry relative="1" as="geometry" />
        </mxCell>
        <mxCell id="LsAvCBgni59_uP4NWD5y-7" value="Generate the result from the guess" style="rounded=0;whiteSpace=wrap;html=1;" parent="WIyWlLk6GJQsqaUBKTNV-1" vertex="1">
          <mxGeometry x="339" y="600" width="120" height="60" as="geometry" />
        </mxCell>
        <mxCell id="LsAvCBgni59_uP4NWD5y-21" value="" style="edgeStyle=orthogonalEdgeStyle;rounded=0;orthogonalLoop=1;jettySize=auto;html=1;" parent="WIyWlLk6GJQsqaUBKTNV-1" source="LsAvCBgni59_uP4NWD5y-8" target="LsAvCBgni59_uP4NWD5y-5" edge="1">
          <mxGeometry relative="1" as="geometry" />
        </mxCell>
        <mxCell id="LsAvCBgni59_uP4NWD5y-8" value="Return the result to the second player" style="shape=parallelogram;perimeter=parallelogramPerimeter;whiteSpace=wrap;html=1;fixedSize=1;" parent="WIyWlLk6GJQsqaUBKTNV-1" vertex="1">
          <mxGeometry x="333" y="690" width="132" height="70" as="geometry" />
        </mxCell>
        <mxCell id="LsAvCBgni59_uP4NWD5y-18" value="No" style="edgeStyle=orthogonalEdgeStyle;rounded=0;orthogonalLoop=1;jettySize=auto;html=1;" parent="WIyWlLk6GJQsqaUBKTNV-1" source="LsAvCBgni59_uP4NWD5y-17" target="LsAvCBgni59_uP4NWD5y-6" edge="1">
          <mxGeometry relative="1" as="geometry" />
        </mxCell>
        <mxCell id="LsAvCBgni59_uP4NWD5y-26" value="Yes" style="edgeStyle=orthogonalEdgeStyle;rounded=0;orthogonalLoop=1;jettySize=auto;html=1;" parent="WIyWlLk6GJQsqaUBKTNV-1" source="LsAvCBgni59_uP4NWD5y-17" target="LsAvCBgni59_uP4NWD5y-25" edge="1">
          <mxGeometry relative="1" as="geometry" />
        </mxCell>
        <mxCell id="LsAvCBgni59_uP4NWD5y-17" value="Has the second player used all their guesses?" style="rhombus;whiteSpace=wrap;html=1;" parent="WIyWlLk6GJQsqaUBKTNV-1" vertex="1">
          <mxGeometry x="331" y="370" width="136" height="100" as="geometry" />
        </mxCell>
        <mxCell id="LsAvCBgni59_uP4NWD5y-22" value="No" style="edgeStyle=orthogonalEdgeStyle;rounded=0;orthogonalLoop=1;jettySize=auto;html=1;" parent="WIyWlLk6GJQsqaUBKTNV-1" source="LsAvCBgni59_uP4NWD5y-5" target="LsAvCBgni59_uP4NWD5y-17" edge="1">
          <mxGeometry x="-0.9454" relative="1" as="geometry">
            <mxPoint x="409" y="580" as="sourcePoint" />
            <mxPoint x="409" y="610" as="targetPoint" />
            <Array as="points">
              <mxPoint x="500" y="830" />
              <mxPoint x="500" y="420" />
            </Array>
            <mxPoint as="offset" />
          </mxGeometry>
        </mxCell>
        <mxCell id="LsAvCBgni59_uP4NWD5y-23" value="Increment the score of the second player" style="rounded=0;whiteSpace=wrap;html=1;" parent="WIyWlLk6GJQsqaUBKTNV-1" vertex="1">
          <mxGeometry x="170" y="800" width="120" height="60" as="geometry" />
        </mxCell>
        <mxCell id="LsAvCBgni59_uP4NWD5y-25" value="Increment the score of the first player" style="rounded=0;whiteSpace=wrap;html=1;" parent="WIyWlLk6GJQsqaUBKTNV-1" vertex="1">
          <mxGeometry x="180" y="390" width="120" height="60" as="geometry" />
        </mxCell>
        <mxCell id="LsAvCBgni59_uP4NWD5y-30" value="No" style="edgeStyle=orthogonalEdgeStyle;rounded=0;orthogonalLoop=1;jettySize=auto;html=1;" parent="WIyWlLk6GJQsqaUBKTNV-1" source="LsAvCBgni59_uP4NWD5y-28" target="LsAvCBgni59_uP4NWD5y-29" edge="1">
          <mxGeometry relative="1" as="geometry" />
        </mxCell>
        <mxCell id="LsAvCBgni59_uP4NWD5y-33" value="Yes" style="edgeStyle=orthogonalEdgeStyle;rounded=0;orthogonalLoop=1;jettySize=auto;html=1;" parent="WIyWlLk6GJQsqaUBKTNV-1" source="LsAvCBgni59_uP4NWD5y-28" target="LsAvCBgni59_uP4NWD5y-32" edge="1">
          <mxGeometry relative="1" as="geometry" />
        </mxCell>
        <mxCell id="LsAvCBgni59_uP4NWD5y-28" value="Have all the rounds been played?" style="rhombus;whiteSpace=wrap;html=1;" parent="WIyWlLk6GJQsqaUBKTNV-1" vertex="1">
          <mxGeometry x="20" y="260" width="136" height="100" as="geometry" />
        </mxCell>
        <mxCell id="LsAvCBgni59_uP4NWD5y-29" value="Swap the player&#39;s roles" style="whiteSpace=wrap;html=1;" parent="WIyWlLk6GJQsqaUBKTNV-1" vertex="1">
          <mxGeometry x="180" y="280" width="120" height="60" as="geometry" />
        </mxCell>
        <mxCell id="LsAvCBgni59_uP4NWD5y-31" value="" style="edgeStyle=orthogonalEdgeStyle;rounded=0;orthogonalLoop=1;jettySize=auto;html=1;" parent="WIyWlLk6GJQsqaUBKTNV-1" source="LsAvCBgni59_uP4NWD5y-29" target="LsAvCBgni59_uP4NWD5y-2" edge="1">
          <mxGeometry relative="1" as="geometry">
            <mxPoint x="409" y="350" as="sourcePoint" />
            <mxPoint x="409" y="380" as="targetPoint" />
            <Array as="points">
              <mxPoint x="240" y="220" />
            </Array>
          </mxGeometry>
        </mxCell>
        <mxCell id="LsAvCBgni59_uP4NWD5y-35" value="" style="edgeStyle=orthogonalEdgeStyle;rounded=0;orthogonalLoop=1;jettySize=auto;html=1;" parent="WIyWlLk6GJQsqaUBKTNV-1" source="LsAvCBgni59_uP4NWD5y-32" target="LsAvCBgni59_uP4NWD5y-34" edge="1">
          <mxGeometry relative="1" as="geometry" />
        </mxCell>
        <mxCell id="LsAvCBgni59_uP4NWD5y-32" value="Display the winner based on which player has more points" style="shape=parallelogram;perimeter=parallelogramPerimeter;whiteSpace=wrap;html=1;fixedSize=1;" parent="WIyWlLk6GJQsqaUBKTNV-1" vertex="1">
          <mxGeometry x="17" y="85" width="142" height="70" as="geometry" />
        </mxCell>
        <mxCell id="LsAvCBgni59_uP4NWD5y-34" value="END" style="ellipse;whiteSpace=wrap;html=1;" parent="WIyWlLk6GJQsqaUBKTNV-1" vertex="1">
          <mxGeometry x="190" y="80" width="120" height="80" as="geometry" />
        </mxCell>
        <mxCell id="LsAvCBgni59_uP4NWD5y-36" value="" style="edgeStyle=orthogonalEdgeStyle;rounded=0;orthogonalLoop=1;jettySize=auto;html=1;" parent="WIyWlLk6GJQsqaUBKTNV-1" source="LsAvCBgni59_uP4NWD5y-25" target="LsAvCBgni59_uP4NWD5y-28" edge="1">
          <mxGeometry relative="1" as="geometry">
            <mxPoint x="409" y="580" as="sourcePoint" />
            <mxPoint x="409" y="610" as="targetPoint" />
          </mxGeometry>
        </mxCell>
        <mxCell id="LsAvCBgni59_uP4NWD5y-37" value="" style="edgeStyle=orthogonalEdgeStyle;rounded=0;orthogonalLoop=1;jettySize=auto;html=1;" parent="WIyWlLk6GJQsqaUBKTNV-1" source="LsAvCBgni59_uP4NWD5y-23" target="LsAvCBgni59_uP4NWD5y-28" edge="1">
          <mxGeometry relative="1" as="geometry">
            <mxPoint x="180" y="430" as="sourcePoint" />
            <mxPoint x="98" y="380" as="targetPoint" />
          </mxGeometry>
        </mxCell>
        <mxCell id="Pipk0IZZBZZFTxZ42eRv-10" value="" style="edgeStyle=orthogonalEdgeStyle;rounded=0;orthogonalLoop=1;jettySize=auto;html=1;" edge="1" parent="WIyWlLk6GJQsqaUBKTNV-1" source="Pipk0IZZBZZFTxZ42eRv-0" target="Pipk0IZZBZZFTxZ42eRv-9">
          <mxGeometry relative="1" as="geometry" />
        </mxCell>
        <mxCell id="Pipk0IZZBZZFTxZ42eRv-0" value="START&lt;br&gt;generateGuessResult" style="ellipse;whiteSpace=wrap;html=1;" vertex="1" parent="WIyWlLk6GJQsqaUBKTNV-1">
          <mxGeometry x="660" y="40" width="120" height="80" as="geometry" />
        </mxCell>
        <mxCell id="Pipk0IZZBZZFTxZ42eRv-3" value="No" style="edgeStyle=orthogonalEdgeStyle;rounded=0;orthogonalLoop=1;jettySize=auto;html=1;" edge="1" parent="WIyWlLk6GJQsqaUBKTNV-1" source="Pipk0IZZBZZFTxZ42eRv-1" target="Pipk0IZZBZZFTxZ42eRv-2">
          <mxGeometry relative="1" as="geometry" />
        </mxCell>
        <mxCell id="Pipk0IZZBZZFTxZ42eRv-15" value="Yes" style="edgeStyle=orthogonalEdgeStyle;rounded=0;orthogonalLoop=1;jettySize=auto;html=1;" edge="1" parent="WIyWlLk6GJQsqaUBKTNV-1" source="Pipk0IZZBZZFTxZ42eRv-1" target="Pipk0IZZBZZFTxZ42eRv-14">
          <mxGeometry relative="1" as="geometry" />
        </mxCell>
        <mxCell id="Pipk0IZZBZZFTxZ42eRv-1" value="Is i equal to the length of guess" style="rhombus;whiteSpace=wrap;html=1;" vertex="1" parent="WIyWlLk6GJQsqaUBKTNV-1">
          <mxGeometry x="652" y="290" width="136" height="100" as="geometry" />
        </mxCell>
        <mxCell id="Pipk0IZZBZZFTxZ42eRv-8" value="Yes" style="edgeStyle=orthogonalEdgeStyle;rounded=0;orthogonalLoop=1;jettySize=auto;html=1;" edge="1" parent="WIyWlLk6GJQsqaUBKTNV-1" source="Pipk0IZZBZZFTxZ42eRv-2" target="Pipk0IZZBZZFTxZ42eRv-5">
          <mxGeometry relative="1" as="geometry" />
        </mxCell>
        <mxCell id="Pipk0IZZBZZFTxZ42eRv-2" value="Is the value of tempCode[i] equal to tempGuess[i]?" style="rhombus;whiteSpace=wrap;html=1;" vertex="1" parent="WIyWlLk6GJQsqaUBKTNV-1">
          <mxGeometry x="820" y="290" width="136" height="100" as="geometry" />
        </mxCell>
        <mxCell id="Pipk0IZZBZZFTxZ42eRv-13" value="" style="edgeStyle=orthogonalEdgeStyle;rounded=0;orthogonalLoop=1;jettySize=auto;html=1;" edge="1" parent="WIyWlLk6GJQsqaUBKTNV-1" source="Pipk0IZZBZZFTxZ42eRv-5" target="Pipk0IZZBZZFTxZ42eRv-12">
          <mxGeometry relative="1" as="geometry" />
        </mxCell>
        <mxCell id="Pipk0IZZBZZFTxZ42eRv-5" value="Append a 1 to result" style="rounded=0;whiteSpace=wrap;html=1;" vertex="1" parent="WIyWlLk6GJQsqaUBKTNV-1">
          <mxGeometry x="1010" y="310" width="120" height="60" as="geometry" />
        </mxCell>
        <mxCell id="Pipk0IZZBZZFTxZ42eRv-7" value="No" style="edgeStyle=orthogonalEdgeStyle;rounded=0;orthogonalLoop=1;jettySize=auto;html=1;entryX=0.5;entryY=0;entryDx=0;entryDy=0;" edge="1" parent="WIyWlLk6GJQsqaUBKTNV-1" source="Pipk0IZZBZZFTxZ42eRv-2" target="Pipk0IZZBZZFTxZ42eRv-1">
          <mxGeometry x="-0.8246" relative="1" as="geometry">
            <mxPoint x="730" y="250" as="sourcePoint" />
            <mxPoint x="730" y="300" as="targetPoint" />
            <Array as="points">
              <mxPoint x="888" y="260" />
              <mxPoint x="720" y="260" />
            </Array>
            <mxPoint as="offset" />
          </mxGeometry>
        </mxCell>
        <mxCell id="Pipk0IZZBZZFTxZ42eRv-11" value="" style="edgeStyle=orthogonalEdgeStyle;rounded=0;orthogonalLoop=1;jettySize=auto;html=1;" edge="1" parent="WIyWlLk6GJQsqaUBKTNV-1" source="Pipk0IZZBZZFTxZ42eRv-9" target="Pipk0IZZBZZFTxZ42eRv-1">
          <mxGeometry relative="1" as="geometry" />
        </mxCell>
        <mxCell id="Pipk0IZZBZZFTxZ42eRv-9" value="Create a tempCode and tempGuess" style="rounded=0;whiteSpace=wrap;html=1;" vertex="1" parent="WIyWlLk6GJQsqaUBKTNV-1">
          <mxGeometry x="660" y="160" width="120" height="60" as="geometry" />
        </mxCell>
        <mxCell id="Pipk0IZZBZZFTxZ42eRv-12" value="Set tempCode[i] and tempGuess[i] to None" style="rounded=0;whiteSpace=wrap;html=1;" vertex="1" parent="WIyWlLk6GJQsqaUBKTNV-1">
          <mxGeometry x="1010" y="230" width="120" height="60" as="geometry" />
        </mxCell>
        <mxCell id="Pipk0IZZBZZFTxZ42eRv-17" value="" style="edgeStyle=orthogonalEdgeStyle;rounded=0;orthogonalLoop=1;jettySize=auto;html=1;" edge="1" parent="WIyWlLk6GJQsqaUBKTNV-1" source="Pipk0IZZBZZFTxZ42eRv-14" target="Pipk0IZZBZZFTxZ42eRv-16">
          <mxGeometry relative="1" as="geometry" />
        </mxCell>
        <mxCell id="Pipk0IZZBZZFTxZ42eRv-14" value="Remove all values of None from tempGuess and tempCode" style="rounded=0;whiteSpace=wrap;html=1;" vertex="1" parent="WIyWlLk6GJQsqaUBKTNV-1">
          <mxGeometry x="660" y="420" width="120" height="60" as="geometry" />
        </mxCell>
        <mxCell id="Pipk0IZZBZZFTxZ42eRv-20" value="No" style="edgeStyle=orthogonalEdgeStyle;rounded=0;orthogonalLoop=1;jettySize=auto;html=1;" edge="1" parent="WIyWlLk6GJQsqaUBKTNV-1" source="Pipk0IZZBZZFTxZ42eRv-16" target="Pipk0IZZBZZFTxZ42eRv-19">
          <mxGeometry relative="1" as="geometry" />
        </mxCell>
        <mxCell id="Pipk0IZZBZZFTxZ42eRv-28" value="" style="edgeStyle=orthogonalEdgeStyle;rounded=0;orthogonalLoop=1;jettySize=auto;html=1;" edge="1" parent="WIyWlLk6GJQsqaUBKTNV-1" source="Pipk0IZZBZZFTxZ42eRv-16" target="Pipk0IZZBZZFTxZ42eRv-27">
          <mxGeometry relative="1" as="geometry" />
        </mxCell>
        <mxCell id="Pipk0IZZBZZFTxZ42eRv-16" value="Is j equal to the length of tempGuess?" style="rhombus;whiteSpace=wrap;html=1;" vertex="1" parent="WIyWlLk6GJQsqaUBKTNV-1">
          <mxGeometry x="652" y="530" width="136" height="100" as="geometry" />
        </mxCell>
        <mxCell id="Pipk0IZZBZZFTxZ42eRv-22" value="Yes" style="edgeStyle=orthogonalEdgeStyle;rounded=0;orthogonalLoop=1;jettySize=auto;html=1;" edge="1" parent="WIyWlLk6GJQsqaUBKTNV-1" source="Pipk0IZZBZZFTxZ42eRv-19" target="Pipk0IZZBZZFTxZ42eRv-21">
          <mxGeometry relative="1" as="geometry" />
        </mxCell>
        <mxCell id="Pipk0IZZBZZFTxZ42eRv-19" value="Is the value of tempGuess[j] in tempCode?" style="rhombus;whiteSpace=wrap;html=1;" vertex="1" parent="WIyWlLk6GJQsqaUBKTNV-1">
          <mxGeometry x="820" y="530" width="136" height="100" as="geometry" />
        </mxCell>
        <mxCell id="Pipk0IZZBZZFTxZ42eRv-24" value="" style="edgeStyle=orthogonalEdgeStyle;rounded=0;orthogonalLoop=1;jettySize=auto;html=1;" edge="1" parent="WIyWlLk6GJQsqaUBKTNV-1" source="Pipk0IZZBZZFTxZ42eRv-21" target="Pipk0IZZBZZFTxZ42eRv-23">
          <mxGeometry relative="1" as="geometry">
            <mxPoint x="1060" y="520" as="targetPoint" />
          </mxGeometry>
        </mxCell>
        <mxCell id="Pipk0IZZBZZFTxZ42eRv-21" value="Append a 2 to the result" style="rounded=0;whiteSpace=wrap;html=1;" vertex="1" parent="WIyWlLk6GJQsqaUBKTNV-1">
          <mxGeometry x="1000" y="550" width="120" height="60" as="geometry" />
        </mxCell>
        <mxCell id="Pipk0IZZBZZFTxZ42eRv-25" value="" style="edgeStyle=orthogonalEdgeStyle;rounded=0;orthogonalLoop=1;jettySize=auto;html=1;" edge="1" parent="WIyWlLk6GJQsqaUBKTNV-1" source="Pipk0IZZBZZFTxZ42eRv-23" target="Pipk0IZZBZZFTxZ42eRv-16">
          <mxGeometry relative="1" as="geometry">
            <Array as="points">
              <mxPoint x="720" y="500" />
            </Array>
          </mxGeometry>
        </mxCell>
        <mxCell id="Pipk0IZZBZZFTxZ42eRv-23" value="Set tempCode[j] to None" style="rounded=0;whiteSpace=wrap;html=1;" vertex="1" parent="WIyWlLk6GJQsqaUBKTNV-1">
          <mxGeometry x="1000" y="470" width="120" height="60" as="geometry" />
        </mxCell>
        <mxCell id="Pipk0IZZBZZFTxZ42eRv-26" value="No" style="edgeStyle=orthogonalEdgeStyle;rounded=0;orthogonalLoop=1;jettySize=auto;html=1;" edge="1" parent="WIyWlLk6GJQsqaUBKTNV-1" source="Pipk0IZZBZZFTxZ42eRv-19" target="Pipk0IZZBZZFTxZ42eRv-16">
          <mxGeometry x="-0.8246" relative="1" as="geometry">
            <mxPoint x="1010" y="510" as="sourcePoint" />
            <mxPoint x="730" y="540" as="targetPoint" />
            <Array as="points">
              <mxPoint x="888" y="500" />
              <mxPoint x="720" y="500" />
            </Array>
            <mxPoint as="offset" />
          </mxGeometry>
        </mxCell>
        <mxCell id="Pipk0IZZBZZFTxZ42eRv-30" value="" style="edgeStyle=orthogonalEdgeStyle;rounded=0;orthogonalLoop=1;jettySize=auto;html=1;" edge="1" parent="WIyWlLk6GJQsqaUBKTNV-1" source="Pipk0IZZBZZFTxZ42eRv-27" target="Pipk0IZZBZZFTxZ42eRv-29">
          <mxGeometry relative="1" as="geometry" />
        </mxCell>
        <mxCell id="Pipk0IZZBZZFTxZ42eRv-27" value="Return the result list" style="shape=parallelogram;perimeter=parallelogramPerimeter;whiteSpace=wrap;html=1;fixedSize=1;" vertex="1" parent="WIyWlLk6GJQsqaUBKTNV-1">
          <mxGeometry x="650" y="660" width="140" height="60" as="geometry" />
        </mxCell>
        <mxCell id="Pipk0IZZBZZFTxZ42eRv-29" value="END" style="ellipse;whiteSpace=wrap;html=1;" vertex="1" parent="WIyWlLk6GJQsqaUBKTNV-1">
          <mxGeometry x="660" y="750" width="120" height="80" as="geometry" />
        </mxCell>
      </root>
    </mxGraphModel>
  </diagram>
</mxfile>
